<?xml version="1.0" standalone="no"?>
<!DOCTYPE svg PUBLIC "-//W3C//DTD SVG 20010904//EN"
 "http://www.w3.org/TR/2001/REC-SVG-20010904/DTD/svg10.dtd">
<svg version="1.0" xmlns="http://www.w3.org/2000/svg"
 width="700.000000pt" height="700.000000pt" viewBox="0 0 700.000000 700.000000"
 preserveAspectRatio="xMidYMid meet">
<metadata>
Created by potrace 1.14, written by Peter Selinger 2001-2017
</metadata>
<g transform="translate(0.000000,700.000000) scale(0.100000,-0.100000)"
fill="#000000" stroke="none">
<path d="M3458 6995 c-1 -1 -40 -6 -85 -9 -46 -4 -91 -9 -100 -10 -35 -7 -99
-17 -130 -21 -18 -2 -56 -8 -85 -14 -29 -6 -64 -13 -77 -16 -50 -9 -186 -47
-279 -76 -345 -110 -674 -281 -967 -503 -172 -130 -420 -366 -517 -491 -12
-16 -30 -38 -39 -47 -37 -41 -191 -260 -242 -343 -266 -440 -425 -931 -463
-1440 -6 -82 -6 -420 0 -475 3 -25 8 -72 11 -105 7 -63 12 -103 20 -145 2 -14
7 -45 10 -70 4 -25 13 -74 22 -110 8 -36 16 -72 18 -80 27 -134 94 -335 178
-535 33 -78 140 -285 181 -348 20 -32 36 -60 36 -63 0 -2 8 -17 19 -32 195
-282 266 -369 459 -560 147 -145 290 -262 465 -379 148 -99 165 -109 347 -202
157 -80 315 -144 486 -197 l122 -38 -219 -219 c-176 -176 -221 -227 -229 -258
-32 -117 74 -227 197 -204 33 6 77 46 339 307 295 294 302 300 335 294 114
-19 488 -28 666 -16 l52 3 276 -277 c152 -152 288 -284 301 -293 14 -9 44 -16
67 -16 114 0 186 108 138 206 -13 26 -95 116 -216 236 -108 107 -192 198 -188
201 4 4 42 15 83 25 123 29 336 100 469 156 388 164 708 378 1007 674 162 161
200 204 323 369 158 210 329 514 409 726 11 30 32 84 45 120 59 155 135 472
153 628 3 29 7 62 9 72 29 149 22 642 -11 820 -2 14 -7 45 -10 70 -3 25 -7 53
-10 62 -3 10 -7 30 -10 45 -13 78 -68 283 -104 393 -321 962 -1083 1715 -2057
2036 -112 37 -332 90 -450 109 -18 3 -45 7 -60 9 -16 3 -55 8 -88 11 -33 4
-73 9 -90 12 -33 5 -511 13 -517 8z m542 -88 c14 -3 48 -8 75 -12 28 -3 66 -9
85 -11 297 -40 687 -170 980 -326 201 -108 423 -260 590 -406 77 -68 245 -235
290 -288 14 -16 48 -56 75 -89 284 -338 510 -787 618 -1225 15 -58 29 -118 32
-135 2 -16 9 -55 15 -85 5 -30 12 -73 15 -95 4 -22 8 -51 10 -65 19 -111 25
-473 11 -650 -28 -361 -146 -781 -312 -1113 -294 -588 -752 -1063 -1321 -1371
-100 -54 -161 -83 -358 -167 -51 -22 -299 -102 -350 -114 -172 -37 -166 -37
-188 -18 -48 42 -106 108 -99 114 4 3 36 11 72 18 377 72 769 232 1076 441
143 96 124 82 308 230 37 30 237 229 286 285 210 238 392 530 515 825 62 146
148 433 170 565 3 17 10 55 15 85 32 186 38 279 35 535 -4 254 -5 263 -36 450
-103 614 -389 1167 -834 1610 -424 423 -941 699 -1525 814 -58 11 -127 23
-155 26 -27 4 -61 8 -75 11 -103 17 -393 23 -560 11 -122 -9 -184 -17 -385
-51 -58 -10 -241 -61 -344 -95 -528 -178 -960 -473 -1341 -917 -14 -16 -46
-56 -70 -89 -25 -33 -48 -62 -51 -65 -26 -22 -229 -354 -229 -375 0 -4 -6 -16
-13 -24 -35 -41 -186 -421 -213 -531 -1 -8 -12 -53 -24 -99 -28 -114 -49 -217
-55 -273 -3 -25 -8 -57 -10 -69 -19 -97 -27 -490 -13 -639 55 -586 267 -1119
627 -1580 183 -233 426 -460 670 -623 89 -60 119 -78 265 -161 124 -71 445
-202 563 -231 10 -3 60 -15 112 -28 l94 -24 -66 -66 c-36 -37 -72 -65 -79 -62
-7 2 -67 21 -132 40 -962 289 -1744 1052 -2061 2010 -38 114 -91 311 -100 370
-2 11 -10 61 -18 110 -29 173 -40 308 -41 485 0 304 34 569 110 845 39 141
101 324 115 340 5 5 9 15 9 22 0 23 134 293 203 409 479 805 1295 1356 2222
1501 151 23 286 30 515 28 140 -2 266 -5 280 -8z m-95 -171 c160 -14 222 -22
345 -47 489 -100 916 -303 1309 -622 220 -180 520 -524 637 -732 109 -194 140
-255 180 -344 51 -118 103 -253 110 -290 3 -13 9 -32 14 -41 20 -37 70 -259
104 -463 28 -165 29 -657 1 -807 -1 -8 -8 -49 -15 -90 -89 -539 -327 -1038
-698 -1462 -100 -113 -153 -166 -274 -273 -77 -68 -95 -83 -190 -152 -236
-173 -482 -307 -723 -392 -49 -18 -107 -39 -127 -46 -61 -24 -313 -85 -413
-101 -28 -4 -43 9 -205 171 -96 96 -174 180 -172 186 12 48 162 226 231 273
70 49 103 56 169 33 61 -21 181 -27 265 -14 205 32 430 201 545 407 70 127
102 289 79 399 -34 160 -163 302 -314 346 -259 76 -601 -99 -766 -391 -89
-158 -115 -351 -68 -493 l22 -64 -26 -54 c-15 -30 -55 -82 -91 -117 -65 -64
-231 -186 -254 -186 -38 0 -177 132 -224 212 -53 92 -76 176 -81 305 -3 87 -7
105 -32 168 -26 63 -75 117 -186 204 -304 240 -540 421 -548 421 -6 0 -20 -12
-33 -26 l-22 -27 65 -60 c36 -34 93 -86 125 -117 146 -136 247 -231 329 -309
49 -46 104 -98 122 -114 l34 -30 -36 -38 -37 -39 -329 329 -328 329 -31 -30
-31 -30 328 -328 327 -327 -28 -32 -28 -32 -327 327 c-222 222 -331 324 -339
319 -7 -5 -21 -15 -30 -24 -16 -15 5 -38 309 -343 l326 -328 -38 -37 -38 -38
-67 72 c-110 117 -314 334 -352 373 -19 20 -74 78 -122 128 -51 54 -92 90
-100 86 -24 -9 -50 -54 -40 -67 40 -51 344 -435 419 -529 145 -181 193 -208
395 -222 81 -6 183 -30 193 -47 4 -5 13 -9 21 -9 33 0 152 -97 218 -178 l35
-43 -169 -170 c-155 -155 -172 -169 -197 -163 -323 73 -619 193 -898 364 -283
173 -558 416 -766 675 -264 331 -457 719 -559 1125 -12 47 -24 96 -26 110 -2
14 -9 45 -14 70 -13 61 -28 169 -37 265 -15 151 -7 586 12 655 2 8 6 35 9 60
3 25 8 56 11 70 3 14 8 41 11 60 34 197 134 498 232 700 56 115 138 260 200
355 47 70 150 211 174 236 7 8 36 41 63 74 256 305 643 591 1035 768 206 92
497 179 715 212 61 10 118 19 128 21 9 1 66 6 125 10 59 3 108 7 109 8 5 4
273 -2 348 -8z m538 -4250 c-214 -192 -259 -256 -345 -486 -22 -58 -42 -107
-44 -110 -3 -2 -4 29 -3 70 2 93 30 213 66 287 47 96 179 209 303 260 77 31
79 29 23 -21z m-708 -1647 c-2 -3 -44 -4 -92 -3 -48 1 -108 2 -133 3 l-44 1
68 69 69 69 67 -66 c38 -37 67 -69 65 -73z m100 -92 c37 -37 64 -71 60 -77 -6
-10 -479 -6 -535 4 -14 2 -32 5 -40 5 -8 1 16 32 55 71 l70 70 162 -3 162 -4
66 -66z"/>
<path d="M2960 4871 c-8 -11 -46 -52 -85 -93 -38 -41 -131 -139 -205 -219
-140 -150 -263 -281 -315 -335 -16 -17 -82 -87 -145 -154 -63 -68 -152 -162
-197 -209 l-83 -86 68 -65 c76 -73 178 -169 367 -345 70 -66 145 -136 165
-155 139 -132 316 -298 334 -313 11 -10 50 -46 86 -80 105 -101 88 -101 182 0
46 48 98 103 116 122 l33 34 -38 34 c-21 19 -72 67 -113 106 -100 95 -205 194
-380 357 -79 74 -182 171 -228 215 -46 44 -88 82 -93 83 -5 2 -9 9 -9 15 0 13
20 35 209 236 64 68 130 139 146 156 53 57 287 306 365 388 41 43 76 82 78 87
3 8 -104 114 -219 217 -23 21 -25 21 -39 4z"/>
<path d="M4150 4771 l-125 -118 60 -63 c33 -35 71 -75 85 -90 14 -15 61 -65
105 -111 215 -228 496 -527 532 -567 l33 -37 -33 -29 c-42 -38 -140 -130 -320
-300 -80 -76 -155 -146 -165 -155 -11 -9 -84 -77 -162 -151 -78 -74 -153 -144
-166 -155 l-23 -20 61 -65 c130 -140 145 -155 161 -169 15 -12 24 -6 79 47 35
33 79 74 98 92 19 18 92 86 162 152 70 66 140 132 155 146 15 14 96 88 178
166 83 78 184 173 225 211 41 39 109 104 152 145 l78 75 -66 70 c-37 39 -99
104 -138 145 -39 42 -136 145 -216 229 -80 85 -152 162 -160 171 -18 21 -235
252 -340 363 -41 43 -86 92 -100 107 l-26 29 -124 -118z"/>
</g>
</svg>
