<?xml version="1.0" encoding="UTF-8" standalone="no"?>
<!DOCTYPE svg PUBLIC "-//W3C//DTD SVG 1.1//EN" "http://www.w3.org/Graphics/SVG/1.1/DTD/svg11.dtd">
<!-- <svg version="1.1" xmlns="http://www.w3.org/2000/svg" xmlns:xlink="http://www.w3.org/1999/xlink" preserveAspectRatio="xMidYMid meet" viewBox="344.5639097744361 330.27819548872174 111.73684210526318 91.21804511278197" width="53.87" height="43.61"><defs><path d="M453.3 331.28L453.3 359.85L388.64 418.5L388.64 388.42L453.3 331.28Z" id="aFZf6T5ED"></path><linearGradient id="gradientb2ThqnP5Op" gradientUnits="userSpaceOnUse" x1="420.97" y1="331.28" x2="420.97" y2="418.5"><stop style="stop-color: #06b6d4;stop-opacity: 1" offset="0%"></stop><stop style="stop-color: #67e8f9;stop-opacity: 1" offset="100%"></stop></linearGradient><path d="M410.23 331.28L410.23 359.85L345.56 418.5L345.56 388.42L410.23 331.28Z" id="a9fehgwfM"></path><linearGradient id="gradientk1wNV9Ostb" gradientUnits="userSpaceOnUse" x1="377.89" y1="331.28" x2="377.89" y2="418.5"><stop style="stop-color: #06b6d4;stop-opacity: 1" offset="0%"></stop><stop style="stop-color: #67e8f9;stop-opacity: 1" offset="100%"></stop></linearGradient></defs><g><g><use xlink:href="#aFZf6T5ED" opacity="1" fill="url(#gradientb2ThqnP5Op)"></use></g><g><use xlink:href="#a9fehgwfM" opacity="1" fill="url(#gradientk1wNV9Ostb)"></use></g></g></svg> -->
<svg id="Layer_1" data-name="Layer 1" xmlns="http://www.w3.org/2000/svg" preserveAspectRatio="xMidYMid meet" viewBox="0 0 86.5 89.41" width="75" height="75">
    <path d="m45.5,1c22.06,0,40,17.94,40,40s-17.94,40-40,40S5.5,63.06,5.5,41,23.44,1,45.5,1m0-1C22.86,0,4.5,18.36,4.5,41s18.36,41,41,41,41-18.36,41-41S68.14,0,45.5,0h0Z"/>
    <path d="m45.5,3.25c20.82,0,37.75,16.93,37.75,37.75s-16.93,37.75-37.75,37.75S7.75,61.82,7.75,41,24.68,3.25,45.5,3.25m0-.25C24.51,3,7.5,20.01,7.5,41s17.01,38,38,38,38-17.01,38-38S66.49,3,45.5,3h0Z"/>
    <path d="m51.32,69.5c2.1,1.12,6.14.78,9.21-2.29,3.05-3.05,4.2-7.5,1.32-10.47h0s-.06-.06-.08-.08c0,0,0,0,0,0-2.97-2.88-7.43-1.73-10.47,1.32-3.07,3.07-3.42,7.11-2.29,9.21-.29,1.72-2.65,3.58-4.76,4.79-1.63-1.01-3.68-2.78-3.9-6.35.16-1.43-.31-2.91-1.41-4-.1-.1-.39-.34-.39-.34l-7.96-6.2-.73.72,8.64,8.1-.94.94-8.37-8.37-.77.77,8.37,8.37-.79.79-8.37-8.37-.7.69,8.32,8.32-.95.96-8.08-8.55-.79.8,6.61,8.32s.16.16.22.22c.96.84,2.17,1.24,3.36,1.2,0,0,.02,0,.03,0,3.15.03,5.09,1.94,6.31,3.59-2.99,2.99-12.27,12.28-12.27,12.28h0s-.02.02-.03.03c-.76.76-.76,1.98,0,2.74.04.04.18.18.22.22.76.76,1.98.76,2.74,0,0,0,.02-.02.02-.03h0s8.62-8.62,11.92-11.92c3.15,3.14,11.86,11.86,11.86,11.86h0s.01.02.02.03c.74.74,1.95.74,2.7,0,.74-.75.75-1.95,0-2.7-.01-.01-.02-.01-.03-.02h0s-9.63-9.63-12.3-12.3c1.21-1.97,2.91-3.99,4.5-4.26Zm-1.02-5.75c.05-.51.15-1.1.32-1.72.09-.31.2-.63.32-.95.14-.33.29-.63.51-.95.42-.61.93-1.09,1.43-1.48.5-.4,1.01-.72,1.46-.96.45-.24.85-.4,1.14-.49.29-.1.46-.11.46-.11,0,0-.14.11-.35.3-.21.2-.51.48-.88.82-.7.68-1.69,1.56-2.39,2.52-.17.22-.32.51-.45.77-.14.27-.27.55-.39.83-.24.55-.44,1.08-.61,1.54-.17.46-.3.85-.38,1.13-.08.28-.07.44-.06.44,0,.01-.11-.15-.14-.46-.04-.3-.05-.73,0-1.24Z"/>
    <path d="m40.41,51.45l-2.95,3.15-14.25-13.37,13.37-14.25,3.17,2.97-10.4,11.08,11.06,10.38v.04Z" fill="#6cc173"/>
    <path d="m49.3,51.45l2.95,3.15,14.25-13.37-13.37-14.25-3.17,2.97,10.4,11.08-11.06,10.38v.04Z" fill="#0050c8"/>
</svg>